<svg width="18" height="16" viewBox="0 0 18 16" fill="none" xmlns="http://www.w3.org/2000/svg">
<path fill-rule="evenodd" clip-rule="evenodd" d="M16.7694 0.594757C15.5729 1.03491 0.82661 6.70006 0.609415 6.80303C-0.112308 7.1451 -0.196683 7.59693 0.404137 7.90254C0.462145 7.93204 1.46027 8.25122 2.62218 8.61186L4.73479 9.26752L9.53186 6.26669C12.1702 4.61621 14.3821 3.2473 14.447 3.22469C14.6099 3.16788 14.7501 3.17319 14.8156 3.23865C14.8614 3.28446 14.8633 3.30745 14.8268 3.37477C14.8028 3.41931 13.0507 5.01042 10.9334 6.91054C8.81615 8.81066 7.07813 10.3802 7.07113 10.3984C7.06417 10.4166 6.99256 11.3652 6.91198 12.5065L6.76552 14.5816L6.92467 14.5601C7.01221 14.5483 7.15083 14.5031 7.23271 14.4597C7.31463 14.4163 7.86584 13.917 8.4577 13.3501C9.04952 12.7832 9.55425 12.3116 9.57932 12.3019C9.60435 12.2923 10.5469 12.9599 11.6738 13.7855C12.8006 14.6111 13.8109 15.3274 13.9188 15.3773C14.2019 15.5081 14.5208 15.521 14.7279 15.4102C14.9129 15.3112 15.0937 15.0653 15.1698 14.8093C15.1992 14.7102 15.8434 11.7335 16.6014 8.19441C17.8634 2.30202 17.9796 1.73153 17.98 1.42571C17.9805 1.13676 17.9684 1.06803 17.891 0.915945C17.8364 0.808718 17.7433 0.699242 17.6524 0.635257C17.4443 0.488937 17.0999 0.473152 16.7694 0.594757Z" fill="#3F414C"/>
</svg>
