<svg width="20" height="12" viewBox="0 0 20 12" fill="none" xmlns="http://www.w3.org/2000/svg">
<path d="M19.894 10.5999C19.8698 10.5477 19.8472 10.5044 19.8262 10.4697C19.4792 9.84475 18.8161 9.07766 17.8373 8.16822L17.8166 8.14739L17.8063 8.13718L17.7958 8.12671H17.7853C17.341 7.70323 17.0597 7.41849 16.9419 7.27271C16.7264 6.995 16.6781 6.71391 16.7959 6.4291C16.8791 6.21391 17.1918 5.75946 17.7331 5.06513C18.0178 4.69716 18.2433 4.40225 18.4099 4.18006C19.611 2.58329 20.1317 1.56293 19.9719 1.11859L19.9099 1.01475C19.8682 0.952237 19.7606 0.895048 19.5872 0.842893C19.4135 0.790846 19.1914 0.782239 18.9206 0.816925L15.9217 0.837641C15.8731 0.820426 15.8037 0.82203 15.7134 0.842893C15.6231 0.863755 15.5779 0.874223 15.5779 0.874223L15.5257 0.900301L15.4843 0.93163C15.4496 0.952347 15.4114 0.988783 15.3697 1.04087C15.3282 1.09277 15.2936 1.15367 15.2658 1.22308C14.9393 2.06308 14.5681 2.84407 14.1515 3.566C13.8946 3.99649 13.6587 4.36957 13.4433 4.68545C13.2281 5.00123 13.0476 5.23389 12.9019 5.38303C12.756 5.53231 12.6244 5.6519 12.5061 5.74225C12.3881 5.83263 12.298 5.87081 12.2355 5.85684C12.173 5.84287 12.1141 5.82901 12.0583 5.81515C11.9612 5.75264 11.8831 5.66762 11.8242 5.56003C11.765 5.45244 11.7252 5.31701 11.7044 5.15387C11.6836 4.99062 11.6714 4.8502 11.6679 4.73214C11.6646 4.61422 11.6661 4.44744 11.6732 4.23225C11.6804 4.01695 11.6836 3.87128 11.6836 3.79491C11.6836 3.53106 11.6888 3.24472 11.6991 2.9358C11.7096 2.62687 11.7181 2.38211 11.7252 2.20179C11.7323 2.02128 11.7356 1.83031 11.7356 1.62899C11.7356 1.42766 11.7233 1.26977 11.6991 1.15517C11.6752 1.04072 11.6385 0.929624 11.5901 0.821921C11.5414 0.714327 11.4701 0.631097 11.3766 0.572011C11.2829 0.512999 11.1664 0.466168 11.0278 0.431373C10.6598 0.348106 10.1912 0.303063 9.62185 0.29606C8.33069 0.282201 7.50105 0.365577 7.13311 0.546079C6.98733 0.622343 6.85541 0.726545 6.73746 0.858357C6.61247 1.01114 6.59504 1.09452 6.68527 1.10823C7.10186 1.17064 7.39677 1.31992 7.57035 1.55593L7.6329 1.68099C7.68155 1.77123 7.73013 1.93098 7.77875 2.16003C7.8273 2.38907 7.85863 2.64245 7.87241 2.92C7.90706 3.42686 7.90706 3.86074 7.87241 4.22167C7.83765 4.58275 7.80483 4.86384 7.7735 5.06517C7.74217 5.2665 7.69534 5.42964 7.6329 5.55456C7.57035 5.67951 7.52873 5.75589 7.50787 5.78361C7.48704 5.81133 7.46968 5.8288 7.4559 5.83565C7.36566 5.87023 7.27182 5.88784 7.17469 5.88784C7.07742 5.88784 6.95947 5.83919 6.82065 5.74195C6.68188 5.64472 6.53785 5.51116 6.38856 5.34105C6.23928 5.1709 6.07093 4.93314 5.88342 4.62772C5.69606 4.3223 5.50166 3.96133 5.30033 3.54481L5.13376 3.24275C5.02963 3.04842 4.88739 2.76547 4.70689 2.39414C4.52628 2.02267 4.36664 1.66334 4.22786 1.31623C4.17238 1.17045 4.08904 1.05947 3.97799 0.983093L3.92587 0.951763C3.89122 0.924044 3.8356 0.894611 3.7593 0.863244C3.68289 0.831914 3.60316 0.809447 3.51978 0.795624L0.666572 0.816341C0.375011 0.816341 0.177184 0.882392 0.073018 1.01431L0.0313299 1.07672C0.0105041 1.11148 0 1.16699 0 1.2434C0 1.31977 0.0208258 1.41351 0.0625139 1.52449C0.47903 2.50341 0.931983 3.4475 1.42137 4.35691C1.91076 5.26632 2.33603 5.99887 2.69692 6.55391C3.05789 7.10935 3.42583 7.63357 3.80073 8.12631C4.17563 8.61924 4.42379 8.93512 4.54521 9.0739C4.66677 9.21294 4.76225 9.31688 4.83166 9.38629L5.09204 9.63616C5.25865 9.8028 5.5033 10.0024 5.82612 10.2349C6.14901 10.4676 6.50648 10.6966 6.89871 10.9224C7.291 11.1478 7.74739 11.3318 8.2681 11.4741C8.78875 11.6165 9.2955 11.6737 9.78842 11.6461H10.986C11.2288 11.6251 11.4128 11.5487 11.5379 11.4169L11.5793 11.3647C11.6072 11.3233 11.6333 11.2589 11.6573 11.1723C11.6817 11.0855 11.6938 10.9899 11.6938 10.886C11.6867 10.5875 11.7094 10.3185 11.7614 10.079C11.8133 9.83964 11.8724 9.65914 11.9386 9.53758C12.0047 9.41612 12.0793 9.31364 12.1624 9.23055C12.2456 9.14728 12.3049 9.09684 12.3397 9.07948C12.3743 9.06201 12.4019 9.05016 12.4227 9.04305C12.5893 8.98754 12.7854 9.0413 13.0112 9.20458C13.2369 9.36772 13.4486 9.56916 13.6465 9.80857C13.8444 10.0482 14.0821 10.317 14.3597 10.6155C14.6376 10.9141 14.8805 11.136 15.0886 11.282L15.2968 11.4069C15.4359 11.4903 15.6164 11.5667 15.8386 11.6361C16.0604 11.7055 16.2547 11.7228 16.4215 11.6881L19.0872 11.6466C19.3509 11.6466 19.556 11.6029 19.7015 11.5163C19.8474 11.4295 19.934 11.3339 19.9619 11.2299C19.9898 11.1258 19.9913 11.0077 19.9672 10.8757C19.9425 10.744 19.9182 10.6519 19.894 10.5999Z" fill="#3A3C48"/>
</svg>
