<svg width="20" height="14" viewBox="0 0 20 14" fill="none" xmlns="http://www.w3.org/2000/svg">
<path d="M19.1522 1.51536C18.611 0.557382 18.0238 0.381174 16.828 0.314164C15.6335 0.233505 12.6298 0.200001 10.0275 0.200001C7.42033 0.200001 4.41536 0.233505 3.2221 0.312924C2.02884 0.381174 1.44031 0.556142 0.894183 1.51536C0.33683 2.47211 0.0500488 4.12003 0.0500488 7.02128C0.0500488 7.02376 0.0500488 7.025 0.0500488 7.025C0.0500488 7.02748 0.0500488 7.02872 0.0500488 7.02872V7.03121C0.0500488 9.92004 0.33683 11.5804 0.894183 12.5272C1.44031 13.4852 2.02759 13.6589 3.22085 13.7396C4.41536 13.8091 7.42033 13.85 10.0275 13.85C12.6298 13.85 15.6335 13.8091 16.8292 13.7408C18.025 13.6601 18.6123 13.4864 19.1534 12.5284C19.7158 11.5816 20 9.92128 20 7.03245C20 7.03245 20 7.02872 20 7.02624C20 7.02624 20 7.02376 20 7.02252C20 4.12003 19.7158 2.47211 19.1522 1.51536ZM7.5313 10.7477V3.30227L13.7657 7.025L7.5313 10.7477Z" fill="#3A3C48"/>
</svg>
