<svg width="21" height="25" viewBox="0 0 21 25" fill="none" xmlns="http://www.w3.org/2000/svg">
<path d="M16.1903 6.34856L16.1903 6.34797C16.1848 5.1892 15.2438 4.24731 14.089 4.24731H2.46709C1.30754 4.24731 0.365845 5.189 0.365845 6.34856V23.0238C0.365845 24.1833 1.30754 25.125 2.46709 25.125H14.089C15.2486 25.125 16.1903 24.1833 16.1903 23.0238L16.1903 6.34856ZM14.5528 23.0186C14.5528 23.2773 14.3426 23.4875 14.0839 23.4875H2.46197C2.20334 23.4875 1.99307 23.2773 1.99307 23.0186V6.34856C1.99307 6.08993 2.20334 5.87966 2.46197 5.87966H14.0839C14.3426 5.87966 14.5528 6.08993 14.5528 6.34856V23.0186Z" fill="white" stroke="white" stroke-width="0.25"/>
<path d="M18.533 -0.125H6.91106C5.75151 -0.125 4.80981 0.81669 4.80981 1.97624C4.80981 2.42926 5.17297 2.79242 5.62599 2.79242C6.07901 2.79242 6.44216 2.42926 6.44216 1.97624C6.44216 1.71761 6.65243 1.50735 6.91106 1.50735H18.533C18.7916 1.50735 19.0019 1.71761 19.0019 1.97624V18.6514C19.0019 18.9101 18.7916 19.1203 18.533 19.1203C18.08 19.1203 17.7168 19.4835 17.7168 19.9365C17.7168 20.3895 18.08 20.7527 18.533 20.7527C19.6926 20.7527 20.6343 19.811 20.6343 18.6514V1.97624C20.6343 0.81669 19.6926 -0.125 18.533 -0.125Z" fill="white" stroke="white" stroke-width="0.25"/>
</svg>
